<svg width="107" height="49" viewBox="0 0 107 49" fill="none" xmlns="http://www.w3.org/2000/svg">
<g clip-path="url(#clip0_203_913)">
<path d="M50.0174 47.3266C50.4299 47.3694 50.7294 47.7396 50.6851 48.1525C50.6423 48.5655 50.2725 48.8653 49.86 48.8209C49.4475 48.7781 49.1495 48.408 49.1923 47.995C49.2351 47.582 49.6049 47.2823 50.0174 47.3266Z" fill="#00A3E0"/>
<path d="M47.6586 46.9514C48.0635 47.0371 48.3232 47.4363 48.2361 47.8431C48.1505 48.2484 47.7518 48.5084 47.3453 48.4212C46.9405 48.3356 46.6807 47.9364 46.7678 47.5296C46.8534 47.1242 47.2521 46.8642 47.6586 46.9514Z" fill="#00A3E0"/>
<path d="M45.3496 46.333C45.7438 46.4615 45.9592 46.8852 45.8308 47.2798C45.7025 47.6744 45.2793 47.89 44.8851 47.7616C44.4909 47.6331 44.2754 47.2094 44.4038 46.8148C44.5321 46.4202 44.9554 46.2045 45.3496 46.333Z" fill="#00A3E0"/>
<path d="M43.1219 45.4761C43.5008 45.6443 43.6704 46.0894 43.5024 46.4687C43.3343 46.848 42.8897 47.0178 42.5107 46.8496C42.1318 46.6813 41.9622 46.2362 42.1303 45.8569C42.2984 45.4776 42.743 45.3078 43.1219 45.4761Z" fill="#00A3E0"/>
<path d="M40.9914 44.3913C41.3504 44.5993 41.4727 45.0582 41.2664 45.4176C41.0586 45.777 40.6002 45.8994 40.2412 45.6929C39.8821 45.4849 39.7599 45.026 39.9661 44.6666C40.1739 44.3072 40.6323 44.1848 40.9914 44.3913Z" fill="#00A3E0"/>
<path d="M38.9886 43.0876C39.3248 43.3308 39.3981 43.8019 39.1552 44.1369C38.9107 44.4718 38.4417 44.5468 38.107 44.3036C37.7709 44.0604 37.6976 43.5893 37.9405 43.2543C38.185 42.9179 38.654 42.8444 38.9886 43.0876Z" fill="#00A3E0"/>
<path d="M37.1335 41.5838C37.4422 41.8606 37.4666 42.3363 37.1885 42.6453C36.9105 42.9542 36.4368 42.9787 36.1282 42.7019C35.8195 42.4235 35.7951 41.9493 36.0732 41.6404C36.3512 41.3314 36.8249 41.307 37.1335 41.5853" fill="#00A3E0"/>
<path d="M35.4448 39.8928C35.7229 40.2017 35.6969 40.6759 35.3898 40.9543C35.0812 41.2326 34.6075 41.2066 34.3295 40.8992C34.0514 40.5902 34.0774 40.1161 34.3845 39.8377C34.6931 39.5594 35.1668 39.5854 35.4448 39.8928Z" fill="#00A3E0"/>
<path d="M33.9412 38.0343C34.1857 38.3693 34.1108 38.8403 33.7747 39.0835C33.4401 39.3282 32.9695 39.2533 32.7266 38.9168C32.4821 38.5819 32.557 38.1108 32.8931 37.8676C33.2277 37.6229 33.6983 37.6978 33.9412 38.0343Z" fill="#00A3E0"/>
<path d="M32.6389 36.0296C32.8467 36.389 32.7229 36.8479 32.3639 37.0559C32.0048 37.2639 31.5464 37.14 31.3387 36.7806C31.1309 36.4211 31.2546 35.9623 31.6137 35.7543C31.9727 35.5463 32.4311 35.6702 32.6389 36.0296Z" fill="#00A3E0"/>
<path d="M52.4026 47.4506V48.9541C61.6632 48.9541 69.729 43.7447 73.836 36.1003L72.5128 35.3906C68.6594 42.5624 61.0917 47.4506 52.4026 47.4506Z" fill="#00A3E0"/>
<path d="M32.6382 13.1861C32.4304 13.5456 31.972 13.6679 31.613 13.4614C31.2539 13.2534 31.1317 12.7946 31.338 12.4352C31.5458 12.0757 32.0041 11.9534 32.3632 12.1599C32.7222 12.3679 32.846 12.8267 32.6382 13.1861Z" fill="#00A3E0"/>
<path d="M33.9406 11.1808C33.6961 11.5173 33.2271 11.5907 32.8924 11.3475C32.5563 11.1043 32.483 10.6332 32.7259 10.2983C32.9704 9.9618 33.4394 9.88838 33.774 10.1316C34.1102 10.3763 34.1835 10.8458 33.9406 11.1808Z" fill="#00A3E0"/>
<path d="M35.4454 9.3216C35.1673 9.63055 34.6936 9.65502 34.385 9.37666C34.0764 9.09829 34.0519 8.62415 34.33 8.31519C34.6081 8.00624 35.0817 7.98176 35.3904 8.26013C35.699 8.5385 35.7234 9.01264 35.4454 9.3216Z" fill="#00A3E0"/>
<path d="M37.133 7.63198C36.8244 7.91035 36.3507 7.88435 36.0726 7.57692C35.7946 7.26797 35.8205 6.79383 36.1276 6.51546C36.4363 6.23709 36.9099 6.26309 37.188 6.57052C37.4661 6.87948 37.4401 7.35362 37.133 7.63198Z" fill="#00A3E0"/>
<path d="M38.9889 6.12747C38.6527 6.37219 38.1837 6.29725 37.9407 5.96076C37.6978 5.62427 37.7712 5.15472 38.1073 4.91153C38.4419 4.66681 38.9125 4.74176 39.1554 5.07824C39.3999 5.41473 39.325 5.88428 38.9889 6.12747Z" fill="#00A3E0"/>
<path d="M40.992 4.82541C40.633 5.03342 40.1731 4.90953 39.9668 4.5501C39.759 4.19067 39.8828 3.73182 40.2418 3.52381C40.6009 3.3158 41.0593 3.43969 41.2671 3.79912C41.4749 4.15855 41.3511 4.61893 40.992 4.82541Z" fill="#00A3E0"/>
<path d="M43.1219 3.7392C42.743 3.90745 42.2999 3.73767 42.1303 3.35836C41.9622 2.97905 42.1318 2.5355 42.5107 2.36572C42.8897 2.19748 43.3328 2.36725 43.5024 2.74657C43.6704 3.12588 43.5008 3.56943 43.1219 3.73767" fill="#00A3E0"/>
<path d="M45.3496 2.88364C44.9554 3.01212 44.5321 2.79646 44.4038 2.40185C44.2754 2.00724 44.4909 1.58357 44.8851 1.4551C45.2793 1.32662 45.7025 1.54228 45.8308 1.93689C45.9592 2.33149 45.7438 2.75516 45.3496 2.88364Z" fill="#00A3E0"/>
<path d="M47.6586 2.26357C47.2537 2.34922 46.8549 2.09074 46.7678 1.68543C46.6807 1.28011 46.9405 0.880915 47.3453 0.793734C47.7502 0.708083 48.149 0.966566 48.2361 1.37188C48.3217 1.7772 48.0635 2.17639 47.6586 2.26357Z" fill="#00A3E0"/>
<path d="M50.0174 1.88903C49.6049 1.93185 49.2366 1.6336 49.1923 1.22064C49.1495 0.807678 49.4475 0.437541 49.86 0.394716C50.2725 0.35189 50.6423 0.65014 50.6851 1.0631C50.7279 1.47606 50.4299 1.84467 50.0174 1.88903Z" fill="#00A3E0"/>
<path d="M52.4026 0.261719V1.76521C61.0917 1.76521 68.6594 6.65345 72.5128 13.8252L73.836 13.1155C69.7305 5.47116 61.6632 0.261719 52.4026 0.261719Z" fill="#00A3E0"/>
<path d="M8.99379 16.4922V21.9387H2.19158V16.4922H0.672852V28.9774H2.19158V23.3535H8.99379V28.9774H10.4957V16.4922H8.99379Z" fill="#00A3E0"/>
<path d="M20.5491 24.5908L18.1992 18.3826L15.8309 24.5908H20.5476H20.5491ZM21.0441 25.8817H15.3374L14.1533 28.9774H12.5979L17.4215 16.4922H19.0288L23.8341 28.9774H22.2084L21.0426 25.8817H21.0441Z" fill="#00A3E0"/>
<path d="M30.3734 20.1348V21.1075H29.2779C27.7225 21.1075 26.928 22.1858 26.928 23.9554V28.9783H25.9211V20.1363H26.7508L26.9097 21.5327C27.2978 20.719 28.2695 20.1363 29.2947 20.1363H30.3719L30.3734 20.1348Z" fill="#00A3E0"/>
<path d="M45.2148 23.3535V28.9774H44.1728V23.4942C44.1728 21.6542 43.2897 20.9308 41.9298 20.9308C40.57 20.9308 39.5265 21.7965 39.4745 23.6716V28.9774H38.4676V23.6013C38.4676 21.8867 37.6731 20.9308 36.2415 20.9308C34.6693 20.9308 33.7693 21.957 33.7693 23.5477V28.9774H32.7625V20.1354H33.5921L33.7693 21.2137C34.2644 20.3297 35.2881 19.958 36.2415 19.958C37.638 19.958 38.6968 20.5943 39.1919 21.7445C39.7388 20.4887 40.9581 19.958 42.0719 19.958C44.104 19.958 45.2164 21.3193 45.2164 23.3535" fill="#00A3E0"/>
<path d="M52.4046 28.2524C54.4184 28.2524 55.7614 26.8025 55.7614 24.5572C55.7614 22.3119 54.4184 20.8436 52.4046 20.8436C50.3909 20.8436 49.0478 22.2935 49.0478 24.5572C49.0478 26.8208 50.3909 28.2524 52.4046 28.2524ZM52.4046 19.958C55.0724 19.958 56.8218 21.85 56.8218 24.574C56.8218 27.298 55.0724 29.1548 52.4046 29.1548C49.7369 29.1548 47.989 27.2628 47.989 24.574C47.989 21.8852 49.7385 19.958 52.4046 19.958Z" fill="#00A3E0"/>
<path d="M67.1734 23.6711V28.9769H66.1482V23.8668C66.1482 21.8693 65.071 20.9317 63.5339 20.9317C61.6791 20.9317 60.7073 22.2762 60.7073 24.133V28.9784H59.7004V20.1364H60.5301L60.689 21.6215C61.2192 20.5249 62.3315 19.959 63.6928 19.959C65.8655 19.959 67.1734 21.4089 67.1734 23.6726" fill="#00A3E0"/>
<path d="M88.691 25.0697H90.3518C89.6092 27.5107 87.6673 29.1366 84.7169 29.1366C81.1844 29.1366 78.8162 26.5548 78.8162 22.806C78.8162 19.0572 81.1661 16.3164 84.752 16.3164C87.6673 16.3164 89.6276 17.8902 90.3518 20.3833H88.691C87.9667 18.58 86.5886 17.7312 84.7337 17.7312C82.066 17.7312 80.3884 19.8174 80.3884 22.754C80.3884 25.6906 82.066 27.7233 84.7337 27.7233C86.6069 27.7233 87.9499 26.8928 88.691 25.0712" fill="#00A3E0"/>
<path d="M98.6944 24.9092H96.0083C94.4713 24.9092 93.9411 25.5454 93.9411 26.3943C93.9411 27.4374 94.7707 27.9513 95.9197 27.9513C97.3865 27.9513 98.6944 27.1376 98.6944 25.316V24.9092ZM101.131 27.8442V28.9761H100.248C99.5424 28.9761 98.8884 28.6931 98.7998 27.7555C98.2696 28.586 97.1038 29.152 95.6737 29.152C93.6767 29.152 92.4407 28.1088 92.4407 26.4111C92.4407 24.9795 93.3238 23.8293 95.8677 23.8293H98.6944V23.3338C98.6944 21.7248 97.7578 21.0518 96.4331 21.0518C95.1084 21.0518 94.2253 21.7064 94.1535 22.7679H92.7585C92.8639 20.8759 94.401 19.8496 96.485 19.8496C98.7112 19.8496 100.16 21.0701 100.16 23.3154V27.1529C100.16 27.7188 100.3 27.8427 100.814 27.8427H101.131V27.8442Z" fill="#00A3E0"/>
<path d="M73.2687 28.5347L70.1243 20.1348H68.9937L72.4039 28.9767C72.5109 29.2597 72.5628 29.5427 72.5628 29.8073C72.5628 30.9926 71.834 31.7849 70.7752 31.7849H69.1678V32.7225H70.74C72.0128 32.7225 72.8592 32.334 73.478 30.6362L77.2626 20.1348H76.161L73.2687 28.5347Z" fill="#00A3E0"/>
<path d="M101.122 19.8604V20.1923H101.9V22.3488H102.311V20.1923H103.088V19.8604H101.122ZM105.701 19.8604L104.971 21.7508L104.228 19.8604H103.594V22.3488H104.005V20.2703H104.017L104.832 22.3488H105.092L105.906 20.2703H105.918V22.3488H106.328V19.8604H105.701Z" fill="#00A3E0"/>
</g>
<defs>
<clipPath id="clip0_203_913">
<rect width="105.654" height="48.6928" fill="white" transform="translate(0.672852 0.261719)"/>
</clipPath>
</defs>
</svg>
