<svg width="76" height="16" viewBox="0 0 76 16" fill="none" xmlns="http://www.w3.org/2000/svg">
<g id="logo_juvederm_svg (2) 3" clip-path="url(#clip0_253_880)">
<g id="Layer 2">
<g id="Layer 1">
<g id="Group">
<path id="Vector" d="M10.918 15.3182C7.17038 16.5533 4.79587 12.6051 5.30833 8.03535C5.56651 5.64491 3.95482 4.07519 1.74069 5.56523C-2.6367 8.52938 3.48148 18.6967 10.918 15.3182Z" fill="#470D4A"/>
<path id="Vector_2" d="M0 6.80859C0.813671 2.86835 5.35145 2.76875 8.99732 5.50182C10.8828 6.91616 13.0344 6.29863 12.8701 3.5815C12.5258 -1.77308 0.841054 -1.45834 0 6.80859Z" fill="#470D4A"/>
<path id="Vector_3" d="M73.3868 6.95948C73.4553 6.79635 73.5551 6.64874 73.6802 6.52522C73.8082 6.40085 73.9582 6.30218 74.1222 6.23438C74.2879 6.16303 74.4665 6.12774 74.6464 6.1308C74.8262 6.12855 75.0046 6.1638 75.1706 6.23438C75.33 6.30427 75.4757 6.40278 75.6009 6.52522C75.7247 6.64896 75.8231 6.79659 75.8904 6.95948C75.9663 7.12803 76.0038 7.31192 75.9999 7.49733C76.0049 7.68798 75.9675 7.87731 75.8904 8.05112C75.824 8.21479 75.7261 8.36326 75.6025 8.48779C75.4788 8.61233 75.332 8.71039 75.1706 8.77621C75.0049 8.84806 74.8265 8.88466 74.6464 8.88378C74.4662 8.88546 74.2877 8.84883 74.1222 8.77621C73.9577 8.71131 73.8074 8.61381 73.6802 8.48936C73.5559 8.36362 73.4563 8.21488 73.3868 8.05112C73.3147 7.87584 73.2787 7.68735 73.2811 7.49733C73.2799 7.31258 73.3158 7.12952 73.3868 6.95948ZM73.6137 7.97143C73.6664 8.11103 73.7463 8.23839 73.8484 8.34594C73.9482 8.4516 74.0679 8.53562 74.2004 8.59295C74.3416 8.65291 74.4934 8.68274 74.6464 8.6806C74.7923 8.68176 74.9368 8.65268 75.0713 8.59515C75.2058 8.53762 75.3274 8.45283 75.4288 8.34594C75.5307 8.23747 75.6116 8.11042 75.6674 7.97143C75.7267 7.82078 75.7559 7.65962 75.7534 7.49733C75.7552 7.34028 75.7259 7.18446 75.6674 7.03916C75.6126 6.90085 75.5315 6.77493 75.4288 6.66865C75.3274 6.56175 75.2058 6.47696 75.0713 6.41943C74.9368 6.3619 74.7923 6.33283 74.6464 6.33398C74.4934 6.33184 74.3416 6.36167 74.2004 6.42163C74.0679 6.47896 73.9482 6.56298 73.8484 6.66865C73.7455 6.77403 73.6655 6.90026 73.6137 7.03916C73.5544 7.18437 73.5238 7.34007 73.5237 7.49733C73.5225 7.65987 73.5531 7.82103 73.6137 7.97143ZM74.7285 6.70052C74.8771 6.68735 75.0254 6.72829 75.1471 6.81606C75.1943 6.85945 75.2311 6.91322 75.2548 6.97327C75.2786 7.03333 75.2885 7.0981 75.284 7.16267C75.2895 7.22114 75.2813 7.2801 75.2603 7.33477C75.2392 7.38945 75.2058 7.43831 75.1628 7.47741C75.0784 7.54856 74.9746 7.59166 74.8655 7.60092L75.3192 8.31008H75.0532L74.619 7.61685H74.3608V8.31008H74.1144V6.71645L74.7285 6.70052ZM74.619 7.41366H74.7755C74.8207 7.4094 74.8653 7.40005 74.9085 7.38578C74.9465 7.36686 74.9789 7.33799 75.0024 7.30211C75.0283 7.25766 75.0406 7.20632 75.0376 7.1547C75.0394 7.10876 75.0285 7.06323 75.0063 7.02323C74.9873 6.99236 74.9602 6.96751 74.928 6.95151C74.8921 6.93069 74.852 6.91843 74.8107 6.91566C74.7691 6.91158 74.7271 6.91158 74.6855 6.91566H74.3608V7.42562L74.619 7.41366ZM13.0108 10.7483C12.8504 10.7483 12.6196 10.8718 12.6196 11.2981C12.6196 12.8718 14.3369 13.6886 15.933 13.6886C18.5774 13.6886 19.2268 11.9435 19.5202 9.82004C19.6767 8.69653 20.4473 3.21845 20.4473 3.10291C20.4473 2.89972 20.3495 2.85988 20.2321 2.85988C19.9024 2.88338 19.5867 3.00533 19.3246 3.21048C19.2698 3.34195 19.2698 3.8041 18.0963 11.326C17.8811 12.7643 17.3139 13.2702 15.9291 13.2702C15.1467 13.2702 14.0357 13.0033 14.0357 12.075C14.0549 11.8019 14.1143 11.5333 14.2118 11.2782C14.2118 11.0392 13.1673 10.7404 13.0382 10.7404M26.7298 7.1308L26.3112 8.3061C25.9943 9.21845 24.7465 11.3141 23.3147 11.3141C22.9235 11.3141 22.6419 11.1268 22.6419 10.8439C22.7062 10.1579 22.8055 9.47571 22.9392 8.80012C23.0565 8.11884 23.3304 7.20649 23.3304 6.88777C23.3304 6.8041 23.2717 6.71247 23.1152 6.71247C22.8414 6.72966 22.5744 6.80714 22.3328 6.93956C22.2507 7.00331 22.0942 7.33797 21.7969 8.91167C21.5231 10.3738 21.48 10.5053 21.48 10.8838C21.48 11.4336 21.7187 11.9037 22.7045 11.9037C23.7685 11.9037 24.8951 11.2463 25.9983 9.83598L26.0374 9.86386C25.9751 10.3304 25.9359 10.7997 25.92 11.2702C25.92 11.6686 26.0961 11.9037 26.7298 11.9037C27.3635 11.9037 28.1889 11.7165 28.1889 11.569C28.1889 11.4216 28.1263 11.4734 27.5552 11.4495C27.1014 11.4216 27.0623 11.2463 27.0623 11.0511C27.0623 10.8559 27.1992 10.2742 27.2814 9.45749C27.34 8.89574 27.7351 7.12283 27.7351 6.98737C27.7351 6.78817 27.5552 6.77621 27.4378 6.77621C27.0036 6.77621 26.808 6.89574 26.7298 7.12283M31.737 11.4336C34.577 7.31406 34.7139 7.11486 34.7139 6.99135C34.6914 6.91876 34.6507 6.8534 34.5958 6.8017C34.5409 6.75 34.4738 6.71376 34.401 6.69653C34.1819 6.69653 34.1428 7.05908 32.8597 9.01526C31.913 10.4655 31.8348 10.5212 31.7565 10.5212C31.6001 10.5212 31.5609 10.318 30.7316 7.47741C30.6534 7.20649 30.6299 7.12681 30.4969 7.04713C30.2364 6.90747 29.9569 6.80811 29.6676 6.75231C29.4877 6.75231 29.4524 6.88777 29.4524 7.00331C29.4524 7.48936 29.9845 8.59693 30.626 10.8041C30.8607 11.6009 31.0172 11.9037 31.1971 11.9037C31.3771 11.9037 31.471 11.8519 31.7487 11.4495M39.6116 7.62482C39.6116 8.70849 37.0102 9.47343 36.7364 9.47343C36.6542 9.47343 36.6151 9.43359 36.6151 9.38179C36.6151 8.93558 37.7182 7.07502 39.0013 7.07502C39.0777 7.06607 39.155 7.07359 39.2283 7.09708C39.3016 7.12057 39.3693 7.15951 39.4268 7.21137C39.4844 7.26322 39.5306 7.32683 39.5624 7.39807C39.5942 7.4693 39.611 7.54656 39.6116 7.62482ZM40.4996 3.8798C40.4368 3.87222 40.3732 3.87785 40.3126 3.89636C40.252 3.91486 40.1958 3.94584 40.1475 3.98737L37.8786 5.93159C37.8508 5.95733 37.8305 5.99043 37.82 6.02721C37.82 6.06705 37.8591 6.09096 37.9373 6.09096H38.2933C38.4126 6.10312 38.5323 6.07054 38.6297 5.99932L41.368 4.00729C41.4071 3.98339 41.4267 3.9555 41.4267 3.94355C41.4267 3.93159 41.368 3.87582 41.2898 3.87582L40.4996 3.8798ZM36.4821 10.2822C36.4821 10.0232 36.5408 9.99534 37.2645 9.7563C38.6258 9.31406 40.5974 8.50928 40.5974 7.54514C40.5974 7.04713 40.1827 6.74833 39.373 6.74833C38.172 6.74833 36.0009 7.62084 35.4298 9.59295C35.3085 9.99135 34.8 9.82004 34.8 10.0591C34.8 10.2981 35.2694 10.1149 35.2929 10.4256C35.3476 11.4017 36.1183 11.8997 37.4209 11.8997C38.2236 11.8915 39.0184 11.7377 39.7681 11.4455C40.261 11.2304 40.4174 11.1627 40.4174 11.0471C40.4174 10.9316 40.3783 10.9117 40.261 10.9117C39.5277 11.1917 38.7551 11.3504 37.9725 11.3818C37.4209 11.3818 36.5329 11.1547 36.4743 10.2702M42.8819 10.2941C42.9121 9.84448 43.0371 9.40673 43.2484 9.01071C43.4597 8.6147 43.7523 8.26973 44.1063 7.99932C44.6775 7.53319 45.3073 7.3539 46.6334 7.3539C47.2632 7.3539 47.4784 7.3539 47.4784 7.64873C47.4784 8.18657 45.6437 11.3539 43.9108 11.3539C43.772 11.3642 43.6328 11.3437 43.5026 11.2939C43.3724 11.2442 43.2543 11.1662 43.1565 11.0655C43.0588 10.9648 42.9836 10.8437 42.9362 10.7105C42.8888 10.5773 42.8703 10.4353 42.8819 10.2941ZM48.0456 10.9754C48.0456 9.9555 49.5634 2.68458 49.5634 2.50928C49.5634 2.33398 49.5087 2.33398 49.3678 2.33398C48.6793 2.33398 48.6402 2.45749 48.3625 3.59295C47.9282 5.42163 47.7287 6.53319 47.6114 6.69653C47.494 6.85988 46.5474 6.8041 45.4246 7.04315C43.0775 7.55709 41.7357 9.60888 41.7357 10.6686C41.7357 11.2702 42.2482 11.9157 43.4922 11.9157C45.1273 11.9157 46.1562 10.7722 47.0794 9.52522L47.1185 9.55311C47.0403 10.1149 46.9033 10.9993 46.9033 11.1746C46.9033 11.5929 47.1381 11.9276 47.8696 11.9276C48.5385 11.9276 49.5087 11.6607 49.5087 11.4854C49.5058 11.4554 49.4923 11.4275 49.4707 11.407C49.4491 11.3865 49.4208 11.3747 49.3913 11.3738C49.2935 11.3738 48.8788 11.4256 48.6089 11.4256C48.1395 11.4256 48.0378 11.2782 48.0378 10.9834M53.3032 11.3937C54.0857 11.3623 54.8583 11.2036 55.5916 10.9236C55.709 10.9236 55.7481 10.9635 55.7481 11.0591C55.7481 11.1547 55.5916 11.2344 55.0987 11.4575C54.3491 11.7499 53.5543 11.9037 52.7516 11.9117C51.4489 11.9117 50.6783 11.4137 50.6235 10.4376C50.604 10.1268 50.1267 10.2902 50.1267 10.071C50.1267 9.85191 50.6392 10.0033 50.7605 9.6049C51.3316 7.63279 53.4988 6.76028 54.7036 6.76028C55.5134 6.76028 55.928 7.0551 55.928 7.55709C55.928 8.52123 53.9721 9.32602 52.5951 9.76825C51.8636 10.0073 51.7854 10.0352 51.8127 10.2941C51.8714 11.1786 52.7594 11.4057 53.311 11.4057M54.3398 7.08697C53.0567 7.08697 51.9536 8.94753 51.9536 9.39375C51.9536 9.44554 51.9927 9.48538 52.0709 9.48538C52.3448 9.48538 54.9501 8.72044 54.9501 7.63677C54.9495 7.55851 54.9327 7.48125 54.9009 7.41002C54.8691 7.33879 54.8229 7.27517 54.7653 7.22332C54.7077 7.17146 54.6401 7.13252 54.5668 7.10903C54.4935 7.08554 54.4162 7.07802 54.3398 7.08697ZM59.7617 7.7045L61.2834 7.56904C61.7137 7.52522 61.8937 7.51327 61.8937 7.01526C61.8937 6.93558 61.8702 6.82801 61.5964 6.82801C61.0128 6.86116 60.4358 6.9696 59.879 7.15072C59.7617 7.19454 59.2258 7.48936 59.1906 7.48936C59.1553 7.48936 59.1319 7.44554 59.1319 7.43359V6.99135C59.1319 6.93956 59.1319 6.84394 58.9324 6.84394C58.6547 6.88013 58.3879 6.97659 58.15 7.12681C58.0296 7.57735 57.9368 8.03507 57.8722 8.49733C57.5358 10.3977 57.3207 11.3659 57.3207 11.6607C57.3207 11.7961 57.3402 11.8878 57.5358 11.8878C57.6905 11.8923 57.8444 11.8634 57.9874 11.803C58.1303 11.7426 58.2591 11.652 58.3651 11.5372C58.4434 11.4216 58.506 10.9515 58.858 8.72044C58.9989 7.85191 59.0184 7.74434 59.746 7.69255M67.3546 7.72841C67.3546 8.41367 66.5723 11.1667 66.5723 11.5292C66.5684 11.5681 66.5727 11.6074 66.5847 11.6445C66.5967 11.6816 66.6163 11.7158 66.6421 11.7447C66.6679 11.7736 66.6994 11.7967 66.7346 11.8124C66.7697 11.8281 66.8077 11.8362 66.8461 11.836C67.4368 11.836 67.6285 11.3778 67.7732 10.7364C68.0471 9.54116 69.9991 7.30211 70.8284 7.30211C70.8751 7.29738 70.9222 7.30354 70.9663 7.32013C71.0103 7.33672 71.05 7.3633 71.0824 7.39786C71.1149 7.43242 71.1391 7.47405 71.1534 7.51959C71.1677 7.56513 71.1716 7.61338 71.1648 7.66068C71.0938 8.20003 70.9813 8.73287 70.8284 9.2543C70.6427 9.90969 70.4913 10.5746 70.3746 11.2463C70.3746 11.6447 70.6719 11.8918 71.4817 11.8918C72.1115 11.8918 72.8234 11.7284 72.8234 11.5571C72.8234 11.4495 72.6826 11.4376 72.4323 11.4376C71.6029 11.4376 71.6029 11.2742 71.6029 11.1268C71.6708 10.5503 71.7833 9.98011 71.9394 9.42163C72.1275 8.80059 72.2585 8.16304 72.3306 7.51725C72.3306 7.03518 71.9394 6.72044 71.3252 6.72044C70.6172 6.72044 69.5922 7.20251 68.27 9.02721H68.2309C68.4069 8.1547 68.5478 7.70052 68.5478 7.48538C68.5478 7.08697 68.3874 6.73637 67.6989 6.73637C66.4354 6.73637 65.2735 7.75231 64.0687 9.25829L64.0295 9.2304C64.3073 7.44554 64.4207 7.01526 64.4207 6.8798C64.4207 6.74434 64.3425 6.73637 64.2056 6.73637C63.9513 6.73637 63.3802 6.90769 63.3215 7.20251C62.5391 10.9754 62.4922 11.4336 62.4922 11.6328C62.4922 11.7005 62.4922 11.8599 62.7465 11.8599C62.9579 11.8712 63.1659 11.802 63.3301 11.6658C63.4942 11.5296 63.6027 11.336 63.6344 11.1228C64.1273 9.32203 66.1772 7.27024 67.0652 7.27024C67.382 7.27024 67.3977 7.5292 67.3977 7.71247" fill="#470D4A"/>
<path id="Vector_4" d="M11.986 11.2985C11.9704 11.1489 11.9849 10.9976 12.0286 10.8539C12.0723 10.7101 12.1443 10.577 12.2402 10.4625C12.3362 10.348 12.454 10.2547 12.5865 10.1881C12.719 10.1216 12.8634 10.0832 13.011 10.0754C13.011 10.0754 14.6618 10.2786 14.8378 11.1352C16.2422 8.1551 16.16 4.0037 12.6745 1.41406C15.6045 4.10729 13.4295 8.18697 9.29858 10.0077C7.15487 10.9639 6.61503 13.1949 8.99345 14.3902C10.4213 15.1192 11.9313 14.6491 13.1557 13.5137C12.7953 13.2713 12.4994 12.9418 12.2946 12.5546C12.0898 12.1673 11.9824 11.7344 11.9821 11.2945" fill="#470D4A"/>
<path id="Vector_5" d="M13.0108 10.7488C12.8504 10.7488 12.6196 10.8723 12.6196 11.2986C12.6196 12.8723 14.3369 13.689 15.933 13.689C18.5774 13.689 19.2268 11.944 19.5241 9.82051C19.6806 8.69701 20.4473 3.2229 20.4473 3.0994C20.4473 2.90019 20.3495 2.86035 20.2321 2.86035C19.9025 2.88455 19.5871 3.00642 19.3246 3.21095C19.2698 3.34242 19.2698 3.80458 18.0963 11.3265C17.8811 12.7607 17.3139 13.2747 15.9291 13.2747C15.1467 13.2747 14.0357 13.0038 14.0357 12.0795C14.0544 11.8063 14.1138 11.5376 14.2118 11.2827C14.2118 11.0436 13.1673 10.7448 13.0382 10.7448" fill="#470D4A"/>
</g>
</g>
</g>
</g>
<defs>
<clipPath id="clip0_253_880">
<rect width="76" height="16" fill="white"/>
</clipPath>
</defs>
</svg>
