<svg width="171" height="31" viewBox="0 0 171 31" fill="none" xmlns="http://www.w3.org/2000/svg">
<path d="M26.1546 24.1063C26.161 24.2834 26.1142 24.4584 26.0202 24.6086C25.9262 24.7588 25.7894 24.8774 25.6274 24.9491C25.4654 25.0207 25.2856 25.0422 25.1113 25.0106C24.9369 24.9791 24.7761 24.896 24.6494 24.7721C24.5227 24.6482 24.4361 24.4892 24.4007 24.3156C24.3653 24.1419 24.3827 23.9617 24.4507 23.7981C24.5187 23.6344 24.6342 23.495 24.7823 23.3976C24.9303 23.3003 25.1041 23.2496 25.2813 23.252C25.3948 23.2504 25.5076 23.2711 25.613 23.3132C25.7185 23.3553 25.8146 23.4179 25.8958 23.4973C25.977 23.5767 26.0416 23.6714 26.086 23.7759C26.1305 23.8805 26.1538 23.9928 26.1546 24.1063ZM24.607 24.1063C24.6044 24.1965 24.6199 24.2863 24.6527 24.3704C24.6854 24.4544 24.7347 24.5311 24.7975 24.5958C24.8604 24.6604 24.9356 24.7118 25.0187 24.7469C25.1018 24.782 25.1911 24.8001 25.2813 24.8001C25.4174 24.8026 25.5512 24.7646 25.6658 24.6909C25.7803 24.6173 25.8703 24.5112 25.9245 24.3863C25.9787 24.2613 25.9945 24.1231 25.9699 23.9891C25.9454 23.8551 25.8816 23.7314 25.7867 23.6338C25.6918 23.5361 25.57 23.4689 25.4368 23.4406C25.3036 23.4123 25.165 23.4242 25.0386 23.4749C24.9122 23.5255 24.8037 23.6125 24.7269 23.725C24.65 23.8374 24.6083 23.9701 24.607 24.1063ZM25.14 24.556H24.9409V23.6953C25.0499 23.6862 25.1594 23.6862 25.2684 23.6953C25.3722 23.6827 25.477 23.7078 25.5638 23.7659C25.5929 23.7857 25.6165 23.8126 25.6323 23.8441C25.648 23.8756 25.6554 23.9106 25.6537 23.9458C25.6505 23.995 25.6311 24.0418 25.5986 24.079C25.5661 24.1161 25.5223 24.1415 25.4739 24.1513C25.5574 24.1513 25.6023 24.2412 25.628 24.3568C25.637 24.4307 25.6587 24.5024 25.6922 24.5688H25.4803C25.4446 24.5028 25.4207 24.4311 25.4097 24.3568C25.4097 24.2669 25.3455 24.2284 25.2299 24.2284H25.14V24.556ZM25.14 24.0742H25.2299C25.3455 24.0742 25.429 24.0357 25.429 23.9458C25.429 23.8558 25.3712 23.8173 25.2492 23.8173H25.14V24.0742Z" fill="white"/>
<path d="M39.0376 21.1131C34.7544 21.1131 32.7188 17.9914 32.7188 14.9789C32.7188 11.5168 35.2103 8.72908 39.1404 8.72908C40.5247 8.70994 41.8712 9.18089 42.942 10.0587L41.709 11.7673C40.9916 11.215 40.1027 10.933 39.1982 10.9708C37.1111 10.9708 35.5635 12.4225 35.5635 14.9147C35.5635 17.1949 36.9891 19.0127 39.2688 19.0127C40.2142 19.0311 41.1317 18.6915 41.8375 18.0621L42.9484 19.7578C41.8503 20.6565 40.4691 21.1368 39.0505 21.1131" fill="white"/>
<path d="M49.5216 21.1123C48.6975 21.1318 47.878 20.9834 47.113 20.6763C46.348 20.3692 45.6534 19.9097 45.0714 19.3257C44.4894 18.7418 44.0322 18.0456 43.7275 17.2794C43.4228 16.5133 43.277 15.6931 43.299 14.8689C43.351 13.2502 44.0304 11.7152 45.1934 10.5886C46.3565 9.46197 47.9121 8.83203 49.5312 8.83203C51.1503 8.83203 52.7059 9.46197 53.869 10.5886C55.0321 11.7152 55.7114 13.2502 55.7634 14.8689C55.7872 15.6965 55.6422 16.5202 55.3373 17.2899C55.0324 18.0595 54.5739 18.759 53.9898 19.3456C53.4058 19.9322 52.7084 20.3937 51.9402 20.7019C51.1719 21.01 50.349 21.1584 49.5216 21.138M52.8865 14.8946C52.8865 12.7107 51.8205 10.8287 49.5216 10.8287C47.2226 10.8287 46.1567 12.7107 46.1567 14.8689C46.1567 17.0271 47.197 19.0826 49.5216 19.0826C51.8462 19.0826 52.8865 17.117 52.8865 14.8689V14.8946Z" fill="white"/>
<path d="M63.0355 21.1132C62.2113 21.1317 61.392 20.9828 60.6271 20.6754C59.8621 20.368 59.1675 19.9086 58.5852 19.3249C58.0029 18.7413 57.545 18.0455 57.2393 17.2797C56.9336 16.514 56.7863 15.6941 56.8065 14.8698C56.8065 13.2157 57.4635 11.6292 58.6328 10.4596C59.8022 9.28992 61.3882 8.63281 63.0419 8.63281C64.6956 8.63281 66.2816 9.28992 67.451 10.4596C68.6204 11.6292 69.2773 13.2157 69.2773 14.8698C69.3011 15.6974 69.1561 16.5211 68.8512 17.2908C68.5463 18.0604 68.0878 18.7599 67.5037 19.3465C66.9197 19.9331 66.2223 20.3946 65.4541 20.7028C64.6858 21.0109 63.8629 21.1593 63.0355 21.1389M66.4004 14.8955C66.4004 12.7116 65.3344 10.8296 63.0355 10.8296C60.7365 10.8296 59.6898 12.6859 59.6898 14.8441C59.6898 17.0023 60.7365 19.0578 63.0612 19.0578C65.3858 19.0578 66.4261 17.0923 66.4261 14.8441L66.4004 14.8955Z" fill="white"/>
<path d="M70.6797 20.8233V3.48047L73.3703 4.95782V20.8233H70.6797Z" fill="white"/>
<path d="M79.5967 21.1893C76.5721 21.1893 75.1016 19.7312 75.1016 19.7312L76.3024 18.1896C77.2713 18.7774 78.3801 19.0945 79.5132 19.1081C80.3866 19.1081 81.1186 18.4979 81.1186 17.8941C81.1165 17.5612 81.0126 17.237 80.8209 16.9649C80.6292 16.6928 80.3589 16.4858 80.0462 16.3718C79.2499 15.9607 78.3509 15.5239 77.6509 15.1835C76.9935 14.8823 76.434 14.4021 76.0365 13.7978C75.6391 13.1935 75.4197 12.4895 75.4034 11.7663C75.4034 9.71088 77.484 8.55469 79.6095 8.55469C80.9185 8.60303 82.1771 9.07147 83.1992 9.89073L82.1653 11.4773C81.441 10.9879 80.5978 10.7038 79.7251 10.6551C78.4408 10.6551 78.1711 11.4773 78.1711 11.8177C78.1868 12.1004 78.2844 12.3724 78.452 12.6005C78.6196 12.8286 78.85 13.003 79.1151 13.1024C79.9435 13.5391 80.7847 14.0016 81.9984 14.6825C82.5702 14.9833 83.0485 15.4351 83.3814 15.9889C83.7143 16.5427 83.8889 17.1773 83.8863 17.8235C83.8863 19.1081 82.602 21.17 79.6031 21.17" fill="white"/>
<path d="M91.118 21.114C86.8348 21.114 84.7734 17.9923 84.7734 14.9926C84.7734 11.5305 87.2714 8.7428 91.1951 8.7428C92.5834 8.72284 93.9342 9.1937 95.0095 10.0724L93.783 11.7682C93.0638 11.2144 92.1724 10.9323 91.2657 10.9717C89.1851 10.9717 87.6375 12.4233 87.6375 14.9156C87.6375 17.1958 89.0631 19.0136 91.3363 19.0136C92.2817 19.032 93.1992 18.6924 93.905 18.063L95.0095 19.7587C93.9114 20.6574 92.5302 21.1376 91.1116 21.114" fill="white"/>
<path d="M104.367 19.4772C103.867 20.0148 103.259 20.4412 102.583 20.7289C101.907 21.0166 101.178 21.1591 100.444 21.1472C99.8505 21.1789 99.2572 21.0865 98.7018 20.8759C98.1463 20.6652 97.6409 20.341 97.2179 19.9239C96.7948 19.5068 96.4634 19.0059 96.2449 18.4534C96.0263 17.9009 95.9254 17.3089 95.9486 16.7152V9.01367H98.6328V16.5674C98.6366 16.8958 98.7069 17.22 98.8396 17.5204C98.9722 17.8208 99.1644 18.0912 99.4046 18.3152C99.6447 18.5392 99.9277 18.7121 100.237 18.8235C100.545 18.9349 100.874 18.9825 101.201 18.9633C102.582 18.9633 103.937 17.319 103.937 17.319V9.01367H106.621V20.8068L104.367 19.4772Z" fill="white"/>
<path d="M109.039 20.8233V3.48047L111.723 4.95782V20.8233H109.039Z" fill="white"/>
<path d="M120.605 21.1157C119.241 21.1425 117.914 20.6696 116.874 19.786V25.6698H114.164V8.77014L116.874 10.1961C117.933 9.2462 119.305 8.7202 120.727 8.71875C123.296 8.71875 126.436 10.6778 126.436 15.0649C126.436 19.452 123.315 21.1157 120.579 21.1157M120.406 10.8384C118.107 10.8384 116.778 12.9902 116.778 12.9902V17.448C117.753 18.4815 119.09 19.0982 120.509 19.1694C123.077 19.1694 123.63 16.0862 123.63 15.0264C123.63 13.9666 123.386 10.8384 120.419 10.8384" fill="white"/>
<path d="M133.538 21.1397H131.843C129.704 21.1397 128.985 19.0842 128.985 17.7289V10.779H126.859V9.01257H128.991V3.79688H131.65V9.01257H134.386V10.779H131.676V17.0738C131.676 17.7739 131.554 18.8916 132.742 18.8916H134.668L133.538 21.1397Z" fill="white"/>
<path d="M137.845 6.97029C137.496 6.96902 137.156 6.86434 136.866 6.66948C136.577 6.47461 136.351 6.1983 136.219 5.87542C136.086 5.55254 136.052 5.19758 136.121 4.85536C136.19 4.51314 136.358 4.199 136.605 3.9526C136.853 3.70621 137.167 3.53861 137.51 3.47097C137.852 3.40334 138.207 3.43869 138.529 3.57257C138.851 3.70645 139.127 3.93286 139.321 4.2232C139.514 4.51354 139.618 4.8548 139.618 5.20389C139.614 5.67243 139.426 6.12073 139.095 6.45145C138.763 6.78217 138.314 6.96861 137.845 6.97029ZM136.516 9.01288H139.155V20.8253H136.516V9.01288Z" fill="white"/>
<path d="M149.805 20.8249V13.2711C149.802 12.9425 149.732 12.6178 149.6 12.317C149.467 12.0162 149.275 11.7454 149.035 11.5213C148.795 11.2971 148.511 11.1242 148.202 11.0132C147.893 10.9021 147.564 10.8552 147.236 10.8752C145.855 10.8752 144.301 12.5196 144.301 12.5196V20.8249H141.617V9.03177L143.89 10.3935C144.996 9.32579 146.47 8.72535 148.007 8.71703C148.6 8.68531 149.193 8.77772 149.749 8.98837C150.304 9.19901 150.809 9.52325 151.233 9.94037C151.656 10.3575 151.987 10.8583 152.206 11.4108C152.424 11.9633 152.525 12.5554 152.502 13.1491V20.857L149.805 20.8249Z" fill="white"/>
<path d="M160.702 26.3249L157.138 26.28L157.183 24.1217H159.861C162.43 24.1217 163.881 22.7407 163.881 20.8523V19.786C162.822 20.6673 161.483 21.1411 160.105 21.1221C157.37 21.1221 154.242 19.4456 154.242 15.0649C154.242 10.6843 157.414 8.71875 159.957 8.71875C161.38 8.7202 162.752 9.2462 163.81 10.1961L166.52 8.84079V20.5889C166.52 23.7556 164.414 26.3249 160.709 26.3249M163.881 12.9581C163.881 12.9581 162.552 10.8063 160.246 10.8063C157.273 10.8063 157.036 13.9216 157.036 14.9943C157.036 16.067 157.588 19.1373 160.157 19.1373C161.576 19.0661 162.912 18.4494 163.887 17.4159L163.881 12.9581Z" fill="white"/>
<path d="M8.625 29.7861V22.0653L10.1405 20.543L14.52 24.9236V26.3946L8.625 29.7861Z" fill="white"/>
<path d="M5.48232 15.4473L0.53125 20.3996L6.58684 22.6734L13.8176 15.4473H5.48232Z" fill="white"/>
<path d="M7.92354 8.54492H1.54688L3.58895 14.4415H13.8186L7.92354 8.54492Z" fill="white"/>
<path d="M14.5276 5.38897L9.60224 0.46875L7.29688 6.5002L14.5276 13.7264V5.38897Z" fill="white"/>
<path d="M29.4207 21.3374H22.1386L16.25 15.4473H26.4668L29.4207 21.3374Z" fill="white"/>
<path d="M23.4743 7.21289L30.0822 8.93433L24.5788 14.4391H16.25L23.4743 7.21289Z" fill="white"/>
<path d="M15.5391 3.50068L21.4277 0V7.82996L15.5391 13.7265V3.50068Z" fill="white"/>
<path d="M23.0426 23.6764L21.1546 30.1189L10.8672 19.8289L15.0284 15.6602L23.0426 23.6764Z" fill="white"/>
<path d="M170.529 9.83986C170.537 10.0954 170.468 10.3475 170.332 10.5638C170.195 10.78 169.997 10.9507 169.763 11.0538C169.53 11.157 169.27 11.188 169.019 11.1429C168.767 11.0978 168.535 10.9785 168.351 10.8005C168.168 10.6225 168.041 10.3937 167.989 10.1435C167.936 9.89335 167.959 9.6331 168.055 9.39611C168.151 9.15911 168.315 8.95616 168.527 8.81322C168.739 8.67028 168.989 8.59387 169.245 8.59375C169.579 8.5936 169.9 8.72364 170.139 8.95629C170.379 9.18894 170.519 9.50588 170.529 9.83986ZM168.288 9.83986C168.284 9.96992 168.307 10.0993 168.355 10.2204C168.402 10.3415 168.474 10.4518 168.565 10.5447C168.656 10.6376 168.765 10.7112 168.885 10.7611C169.005 10.8111 169.134 10.8364 169.264 10.8355C169.392 10.8347 169.519 10.8081 169.636 10.7572C169.754 10.7062 169.86 10.632 169.948 10.539C170.036 10.446 170.105 10.3361 170.149 10.216C170.194 10.0958 170.214 9.9679 170.208 9.83986C170.208 9.58433 170.106 9.33926 169.926 9.15857C169.745 8.97788 169.5 8.87637 169.245 8.87637C168.989 8.87637 168.744 8.97788 168.564 9.15857C168.383 9.33926 168.281 9.58433 168.281 9.83986M169.046 10.4822H168.757V9.19754C168.916 9.17728 169.077 9.16656 169.238 9.16542C169.386 9.14729 169.536 9.18135 169.662 9.26177C169.703 9.29233 169.736 9.33215 169.758 9.37794C169.78 9.42374 169.792 9.47418 169.791 9.52512C169.787 9.59661 169.759 9.66483 169.713 9.71935C169.667 9.77387 169.604 9.81169 169.534 9.82702C169.656 9.86556 169.713 9.96833 169.752 10.1289C169.767 10.2363 169.799 10.3405 169.848 10.4372H169.54C169.492 10.3403 169.459 10.2362 169.444 10.1289C169.444 10.0069 169.347 9.94264 169.187 9.94264H169.046V10.4822ZM169.046 9.78205H169.18C169.341 9.78205 169.469 9.73067 169.469 9.59578C169.469 9.46089 169.386 9.40951 169.2 9.40951H169.046V9.78205Z" fill="white"/>
</svg>
