<svg width="122" height="105" viewBox="0 0 122 105" fill="none" xmlns="http://www.w3.org/2000/svg">
<g clip-path="url(#clip0_1406_141)">
<path d="M7.60689 49.2799C7.60689 48.4942 7.96542 47.7381 8.67031 47.0366C11.3182 44.4028 18.5601 42.8219 26.6892 43.1015C31.4639 43.2655 34.5205 43.4546 38.6389 45.0386C33.1259 42.5407 27.9835 41.8486 23.0796 41.8486C12.6323 41.8502 5.01367 43.9216 5.01367 48.0896C5.01367 49.9282 7.59322 51.7794 10.9582 53.1776C8.79336 52.0559 7.60689 50.7125 7.60689 49.2799Z" fill="#340C36"/>
<path d="M26.6838 43.266C16.235 42.9067 7.76562 45.5999 7.76562 49.2804C7.76562 51.4706 10.769 53.4249 15.4025 54.634C13.3455 53.8733 11.837 52.925 11.0987 51.8705C10.7675 51.3956 10.5898 50.9004 10.5898 50.3912C10.5898 46.9872 18.4211 44.2283 28.0799 44.2283C30.8053 44.2283 33.3803 44.4502 35.6803 44.8407C37.7889 45.2 39.6651 45.7046 41.198 46.3154C35.577 43.6613 32.3351 43.4613 26.6838 43.266Z" fill="#340C36"/>
<path d="M19.5833 55.7773C16.3581 54.676 14.3559 53.1419 14.3559 51.447C14.3559 48.093 22.1872 45.3732 31.846 45.3732C35.287 45.3732 38.4924 45.72 41.1965 46.3152C37.9926 45.0358 33.3044 44.2266 28.08 44.2266C18.4196 44.2266 10.5898 46.9854 10.5898 50.3894C10.5898 52.0359 12.422 53.5278 15.4026 54.6323C15.4041 54.6338 15.4071 54.6338 15.4102 54.6354L15.4086 54.6432C15.4345 54.6494 15.4603 54.6541 15.4861 54.6619C16.6847 55.1009 18.0626 55.479 19.5833 55.7773Z" fill="#340C36"/>
<path d="M10.4302 50.3912C10.4302 46.9028 18.3482 44.0659 28.0799 44.0659C32.2729 44.0659 36.3017 44.5986 39.4616 45.5468C34.8554 43.6238 31.7275 43.4394 26.6838 43.266C16.235 42.9067 7.76562 45.5999 7.76562 49.2804C7.76562 51.2457 10.1857 53.0172 14.0261 54.2341C11.6972 53.1422 10.4302 51.8034 10.4302 50.3912Z" fill="#340C36"/>
<path d="M28.0793 44.2279C33.3052 44.2279 37.9919 45.0356 41.1958 46.3166C40.8388 46.1229 40.4848 45.937 40.1309 45.7573C39.6311 45.5042 39.1328 45.2652 38.6375 45.0403C34.5175 43.4562 31.461 43.2672 26.6877 43.1032C18.5587 42.8235 11.3183 44.4045 8.66889 47.0383C7.96247 47.7397 7.60547 48.4958 7.60547 49.2816C7.60547 50.7141 8.79194 52.0576 10.9552 53.1777C11.9731 53.5995 13.0608 53.9791 14.1713 54.3056C14.58 54.4259 14.9932 54.5399 15.4079 54.6461L15.4094 54.6383C15.4064 54.6368 15.4034 54.6352 15.4018 54.6352C15.2363 54.5743 15.0752 54.5118 14.9157 54.4462C14.8747 54.429 14.8337 54.4134 14.7927 54.3962C14.6559 54.3399 14.5207 54.2821 14.3886 54.2243C14.3688 54.215 14.346 54.2056 14.3263 54.1962C14.1789 54.1306 14.0361 54.0634 13.8963 53.9947C13.8599 53.9775 13.8234 53.9588 13.787 53.94C13.6745 53.8838 13.5652 53.8275 13.4588 53.7713C13.4284 53.7541 13.3965 53.7385 13.3677 53.7213C13.2416 53.6526 13.1185 53.5823 12.9985 53.5104C12.9666 53.4901 12.9362 53.4714 12.9043 53.4526C12.8117 53.3964 12.7235 53.3386 12.6354 53.2808C12.602 53.2589 12.5686 53.237 12.5367 53.2152C12.4303 53.1433 12.327 53.0699 12.2283 52.9949C12.2025 52.9762 12.1782 52.9558 12.1539 52.9371C12.0779 52.8793 12.005 52.8184 11.9336 52.759C11.9032 52.7325 11.8713 52.7059 11.8424 52.6809C11.7574 52.6059 11.6738 52.5294 11.5978 52.4528C11.5811 52.4372 11.5659 52.4185 11.5507 52.4028C11.4869 52.3388 11.4262 52.2732 11.3684 52.2076C11.3426 52.1794 11.3183 52.1498 11.2955 52.1216C11.2408 52.056 11.1907 51.992 11.1436 51.9279C11.1299 51.9092 11.1147 51.8904 11.1011 51.8717C10.7699 51.3968 10.5922 50.9016 10.5922 50.3923C10.5891 46.9867 18.4204 44.2279 28.0793 44.2279ZM10.4296 50.3907C10.4296 51.803 11.6951 53.1433 14.024 54.2353C10.1835 53.0183 7.76346 51.2468 7.76346 49.2816C7.76346 45.5995 16.2343 42.9063 26.6817 43.2672C31.7253 43.4406 34.8533 43.6249 39.4609 45.5464C36.301 44.5982 32.2707 44.0655 28.0793 44.0655C18.3475 44.0639 10.4296 46.9024 10.4296 50.3907Z" fill="#340C36"/>
<path d="M113.42 52.7341V52.0952H113.767C114.185 52.0952 114.326 52.1702 114.326 52.403C114.326 52.6357 114.162 52.7341 113.732 52.7341H113.42ZM113.198 51.9124V53.6886H113.42V52.9029H113.532C113.957 52.9029 114.053 52.9872 114.39 53.6886H114.665C114.39 53.0497 114.34 53.0231 114.091 52.8763C114.483 52.8122 114.595 52.581 114.595 52.3936C114.595 52.0952 114.361 51.9124 113.962 51.9124H113.198ZM113.906 51.1001C112.924 51.1001 112.133 51.8499 112.133 52.7826C112.133 53.7168 112.923 54.4666 113.906 54.4666C114.89 54.4666 115.682 53.7168 115.682 52.7826C115.682 51.8499 114.892 51.1001 113.906 51.1001ZM113.906 51.3141C114.766 51.3141 115.46 51.9671 115.46 52.7826C115.46 53.5996 114.766 54.2526 113.906 54.2526C113.05 54.2526 112.355 53.6012 112.355 52.7826C112.356 51.9671 113.052 51.3141 113.906 51.3141Z" fill="#340C36"/>
<path d="M28.9326 64.0978H26.9759L22.3926 47.8901H26.5278L29.0162 57.296H29.0769L34.9713 47.8901H39.4452L28.9326 64.0978Z" fill="#340C36"/>
<path d="M38.9166 64.0983H35.4863L37.759 51.8086H41.1893L38.9166 64.0983Z" fill="#340C36"/>
<path d="M51.5578 54.8166C50.5157 54.2385 48.7899 53.734 47.5594 53.734C46.3061 53.734 45.2882 54.2745 45.2882 55.0852C45.2882 56.8521 51.2266 57.0864 51.2266 60.5279C51.2266 62.5087 49.3809 64.2943 45.7622 64.2943C43.4196 64.2943 41.7151 63.8444 40.2734 63.1227L40.793 60.9794C42.0949 61.6995 44.0106 62.24 45.3596 62.24C46.7542 62.24 47.6763 61.6995 47.6763 60.8888C47.6763 58.8517 41.7394 58.6189 41.7394 55.3914C41.7394 53.2653 44.1519 51.6797 47.4166 51.6797C48.9783 51.6797 50.6357 52.0218 52.0303 52.6529L51.5578 54.8166Z" fill="#340C36"/>
<path d="M66.2726 53.8629H61.0193L59.1264 64.0983H55.6961L57.589 53.8629H52.4785L52.8583 51.8086H66.6508L66.2726 53.8629Z" fill="#340C36"/>
<path d="M75.6624 64.0977H72.1364L71.6381 61.4123H66.6233L65.0631 64.0977H61.2773L69.1785 51.6455H72.8215L75.6624 64.0977ZM67.6168 59.6658H71.3555L70.5033 54.2231H70.4546L67.6168 59.6658Z" fill="#340C36"/>
<path d="M83.5802 51.8086C87.7443 51.8086 88.952 53.3583 88.952 54.7814C88.952 55.9702 88.1468 56.9263 86.611 57.5215C88.478 57.9355 89.6143 59.143 89.6143 60.5318C89.6143 62.0456 88.0055 64.0998 84.077 64.0998H76.1758L78.4469 51.8102H83.5802V51.8086ZM79.9372 62.0456H83.2004C85.3303 62.0456 86.0656 61.1801 86.0656 60.2428C86.0656 59.1071 84.715 58.6213 83.0606 58.6213H80.6239L79.9372 62.0456ZM81.3334 56.567H83.6531C85.3105 56.567 85.9471 55.8812 85.9471 55.1064C85.9471 54.3503 85.2376 53.8644 83.6759 53.8644H81.8787L81.3334 56.567Z" fill="#340C36"/>
<path d="M101.729 53.8629H95.081L94.5371 56.7638H100.378L100.002 58.8181H94.1573L93.5664 62.044H101.942L101.563 64.0983H89.7578L92.0305 51.8086H102.107L101.729 53.8629Z" fill="#340C36"/>
<path d="M106.232 62.0445H113.565L113.187 64.0988H102.422L104.695 51.8091H108.125L106.232 62.0445Z" fill="#340C36"/>
</g>
<defs>
<clipPath id="clip0_1406_141">
<rect width="111" height="26" fill="white" transform="translate(5 39)"/>
</clipPath>
</defs>
</svg>
