<svg width="375" height="866" viewBox="0 0 375 866" fill="none" xmlns="http://www.w3.org/2000/svg">
<path d="M-7.74219 857.099V634.142L36.9148 590.182L165.966 716.684V759.161L-7.74219 857.099Z" fill="#00A9E0" fill-opacity="0.1"/>
<path d="M-99.5916 444.863L-245 587.14L-67.1529 652.466L145.207 444.863H-99.5916Z" fill="#00A9E0" fill-opacity="0.1"/>
<path d="M-27.9936 246.154H-215.344L-155.346 415.202H145.206L-27.9936 246.154Z" fill="#00A9E0" fill-opacity="0.1"/>
<path d="M165.966 154.911L21.3784 13.5547L-46.2969 186.836L165.966 394.441V154.911Z" fill="#00A9E0" fill-opacity="0.1"/>
<path d="M601.938 613.911H388.768L216.391 444.863H515.467L601.938 613.911Z" fill="#00A9E0" fill-opacity="0.1"/>
<path d="M427.713 207.6L621.003 257.055L460.022 415.202H216.391L427.713 207.6Z" fill="#00A9E0" fill-opacity="0.1"/>
<path d="M195.625 100.595L367.638 0V225.001L195.625 394.444V100.595Z" fill="#00A9E0" fill-opacity="0.1"/>
<path d="M415.092 680.993L359.644 866L57.5078 570.505L179.72 450.795L415.092 680.993Z" fill="#00A9E0" fill-opacity="0.1"/>
</svg>
